<?xml version="1.0" encoding="utf-8"?>
<!-- Generator: Adobe Illustrator 24.2.3, SVG Export Plug-In . SVG Version: 6.00 Build 0)  -->
<!DOCTYPE svg PUBLIC "-//W3C//DTD SVG 1.1//EN" "http://www.w3.org/Graphics/SVG/1.1/DTD/svg11.dtd" [
	<!ENTITY ns_extend "http://ns.adobe.com/Extensibility/1.0/">
	<!ENTITY ns_ai "http://ns.adobe.com/AdobeIllustrator/10.0/">
	<!ENTITY ns_graphs "http://ns.adobe.com/Graphs/1.0/">
	<!ENTITY ns_vars "http://ns.adobe.com/Variables/1.0/">
	<!ENTITY ns_imrep "http://ns.adobe.com/ImageReplacement/1.0/">
	<!ENTITY ns_sfw "http://ns.adobe.com/SaveForWeb/1.0/">
	<!ENTITY ns_custom "http://ns.adobe.com/GenericCustomNamespace/1.0/">
	<!ENTITY ns_adobe_xpath "http://ns.adobe.com/XPath/1.0/">
]>
<svg version="1.1" id="Capa_1" xmlns:x="&ns_extend;" xmlns:i="&ns_ai;" xmlns:graph="&ns_graphs;"
	 xmlns="http://www.w3.org/2000/svg" xmlns:xlink="http://www.w3.org/1999/xlink" x="0px" y="0px" viewBox="0 0 400.2 85.4"
	 style="enable-background:new 0 0 400.2 85.4;" xml:space="preserve">
<style type="text/css">
	.st0{fill:#231E1F;}
</style>
<metadata>
	<sfw  xmlns="&ns_sfw;">
		<slices></slices>
		<sliceSourceBounds  bottomLeftOrigin="true" height="85.4" width="400.2" x="0" y="-85.4"></sliceSourceBounds>
	</sfw>
</metadata>
<g id="Grupo_1578" transform="translate(-280.638 -532.869)">
	<g id="Grupo_1554" transform="translate(280.638 532.869)">
		<path id="Trazado_3173" class="st0" d="M21.4,0v21.9c4.1-5,10.3-7.8,16.7-7.7c6.3,0,11.3,1.8,14.8,5.5c3.6,3.6,5.4,8.6,5.4,15v35
			H31.6V37.7c0.1-1.7-0.4-3.5-1.4-4.9c-1-1.2-2.4-1.9-4-1.8c-1.8,0.1-3.6,0.9-4.9,2.2v36.7H0V0L21.4,0z"/>
		<path id="Trazado_3174" class="st0" d="M142.4,14.7l6.6,14.7l6.4-14.7h27.5l-29.8,70.6h-30.8l11.4-26.8l-19.4-43.8H142.4z"/>
		<path id="Trazado_3175" class="st0" d="M171.3,58.2c-0.1-2.1,0.3-4.3,1.1-6.3c0.8-1.9,1.9-3.7,3.4-5.2c1.4-1.5,3.1-2.6,5-3.4
			c1.9-0.8,3.9-1.2,6-1.2c4.1-0.1,8.1,1.6,10.9,4.7c2.9,3.3,4.4,7.5,4.3,11.9c0,6.1-2.4,11.7-7.1,16.9c-4.6,5.1-10.9,8.4-17.7,9.5
			l-0.8-0.6c1-0.6,2-1.3,2.8-2.2c0.8-0.8,1.6-1.8,2.2-2.8c0.6-1,1.1-2.1,1.5-3.3c0.4-1.1,0.6-2.3,0.7-3.5
			C175.4,70.4,171.3,65.5,171.3,58.2"/>
		<path id="Trazado_3176" class="st0" d="M119.8,44.1c0.1-5.6-1.2-11.1-3.8-16.1c-2.4-4.6-6.1-8.3-10.6-10.7
			c-4.7-2.5-10-3.8-15.3-3.7c-5.2-0.1-10.4,1.2-15.1,3.6c-4.3,2.3-7.8,5.7-10.2,10c-2.5,4.4-3.7,9.4-3.6,14.5c0,2.7,0.3,5.5,1,8.2
			c0.6,2.5,1.6,4.9,3,7.1c1.3,2.2,2.9,4.1,4.8,5.8c1.9,1.8,4.1,3.2,6.4,4.4c2.5,1.2,5.1,2.1,7.8,2.7c3,0.6,6,0.9,9,0.9
			c5.2,0.1,10.4-0.9,15.2-2.9c4.6-2.1,8.5-5.3,11.5-9.3v-9.7c-0.9,1-1.9,1.8-3,2.5c-1.1,0.8-2.4,1.4-3.6,1.9
			c-1.3,0.5-2.7,0.9-4.1,1.2c-1.5,0.3-3,0.4-4.4,0.4c-1.5,0-3.1-0.2-4.6-0.6c-1.4-0.4-2.7-1-3.9-1.8c-1.2-0.8-2.2-1.7-3.1-2.8
			c-0.9-1.1-1.6-2.4-2.1-3.7h29L119.8,44.1z M71.4,36.2v-0.5c-0.1-1.8,0.5-3.6,1.6-5.1c0.9-1.3,2.4-2,4-2c1.7-0.1,3.3,0.7,4.3,2.1
			c1.2,1.6,1.8,3.6,1.7,5.6L71.4,36.2z M89.8,36.2v-0.4c-0.1-1.3,0.5-2.7,1.4-3.6c0.9-1,2.2-1.5,3.5-1.5c1.4-0.1,2.8,0.5,3.8,1.5
			c1,1.1,1.5,2.5,1.5,4L89.8,36.2z"/>
	</g>
	<g id="Grupo_1555" transform="translate(500.72 560.288)">
		<path id="Trazado_3177" class="st0" d="M27.6,28.6c0,9.4-5,15.8-13.1,15.8c-6.1,0-8.9-3.6-9.8-5.4v4.8H0V0h4.8v17.8
			c1.5-3.3,5.1-5.4,9.5-5.4C21.9,12.3,27.6,18.6,27.6,28.6z M22.9,28.9c0-6.8-3-12.5-9.3-12.5c-5.9,0-8.9,4.5-8.9,11.8
			c0,7.8,3.3,12.2,9.1,12.2C19.9,40.4,22.9,35.7,22.9,28.9z"/>
		<path id="Trazado_3178" class="st0" d="M63.1,22.3v21.5h-4.6v-5.7c-2.1,4-6.3,6.5-10.8,6.4c-5.6,0-10.1-3-10.1-8.8
			c0-5.6,3.9-8,12.2-9.2c5.9-0.9,8.7-1.5,8.7-4.8c0-3.1-2.9-5.4-7-5.4c-5,0-7.5,2.7-7.8,7.3H39c0.2-6,3.9-11.2,12.6-11.2
			C58.1,12.4,63.1,15.7,63.1,22.3z M58.5,30.1v-2.6c-2.5,1.2-5.1,2-7.8,2.3c-5.3,1-8.4,2.3-8.4,5.8c0,3.5,3,4.9,6.4,4.9
			C53.9,40.6,58.5,36.8,58.5,30.1L58.5,30.1z"/>
		<path id="Trazado_3179" class="st0" d="M101.9,24.1v19.7H97v-18c0-6.5-1.7-9.5-5.9-9.5c-5.4,0-10.7,6.7-10.7,17.9v9.6h-4.8V13h4.8
			v9.7c1.8-5.7,5.3-10.3,11.9-10.3C98.3,12.3,101.9,16.1,101.9,24.1z"/>
		<path id="Trazado_3180" class="st0" d="M127.4,16.4c-6.2,0-9.9,5.5-9.9,12c0,7,4.1,12,10.4,12c5.1,0,7.6-3,8.4-6.9h4.7
			c-1,6.5-5.6,10.9-13.1,10.9c-9.7,0-15.1-7.2-15.1-16s5.6-16,14.6-16c7.3,0,12.6,4.6,13.3,11.4H136
			C135.5,19.4,131.8,16.2,127.4,16.4z"/>
		<path id="Trazado_3181" class="st0" d="M150.8,28.4c0-9.4,5.7-16,14.6-16s14.6,6.7,14.6,16c0,9.3-5.7,16-14.6,16
			S150.8,37.8,150.8,28.4z M175.3,28.4c0-6.8-3.5-12.1-9.9-12.1s-9.9,5.2-9.9,12.1c0,6.8,3.5,12,9.9,12S175.3,35.2,175.3,28.4
			L175.3,28.4z"/>
	</g>
</g>
</svg>
